<?xml version="1.0" standalone="no"?>
<!DOCTYPE svg PUBLIC "-//W3C//DTD SVG 20010904//EN"
 "http://www.w3.org/TR/2001/REC-SVG-20010904/DTD/svg10.dtd">
<svg version="1.0" xmlns="http://www.w3.org/2000/svg"
 width="239.000000pt" height="239.000000pt" viewBox="0 0 239.000000 239.000000"
 preserveAspectRatio="xMidYMid meet">
<metadata>
Created by potrace 1.14, written by Peter Selinger 2001-2017
</metadata>
<g transform="translate(0.000000,239.000000) scale(0.100000,-0.100000)"
fill="#000000" stroke="none">
<path d="M1232 1830 c0 -14 2 -19 5 -12 2 6 2 18 0 25 -3 6 -5 1 -5 -13z"/>
<path d="M660 1836 c0 -2 8 -10 18 -17 15 -13 16 -12 3 4 -13 16 -21 21 -21
13z"/>
<path d="M1070 1815 c0 -5 5 -17 10 -25 5 -8 10 -10 10 -5 0 6 -5 17 -10 25
-5 8 -10 11 -10 5z"/>
<path d="M1151 1794 c0 -11 3 -14 6 -6 3 7 2 16 -1 19 -3 4 -6 -2 -5 -13z"/>
<path d="M910 1791 c0 -6 4 -13 10 -16 6 -3 7 1 4 9 -7 18 -14 21 -14 7z"/>
<path d="M1381 1784 c0 -11 3 -14 6 -6 3 7 2 16 -1 19 -3 4 -6 -2 -5 -13z"/>
<path d="M1301 1774 c0 -11 3 -14 6 -6 3 7 2 16 -1 19 -3 4 -6 -2 -5 -13z"/>
<path d="M730 1755 c13 -14 26 -25 28 -25 3 0 -5 11 -18 25 -13 14 -26 25 -28
25 -3 0 5 -11 18 -25z"/>
<path d="M1452 1755 c-17 -37 -14 -45 4 -12 9 16 14 31 11 33 -2 2 -9 -7 -15
-21z"/>
<path d="M1654 1758 l-19 -23 23 19 c21 18 27 26 19 26 -2 0 -12 -10 -23 -22z"/>
<path d="M1080 1761 c0 -6 4 -13 10 -16 6 -3 7 1 4 9 -7 18 -14 21 -14 7z"/>
<path d="M930 1755 c0 -5 5 -17 10 -25 5 -8 10 -10 10 -5 0 6 -5 17 -10 25 -5
8 -10 11 -10 5z"/>
<path d="M1222 1740 c0 -14 2 -19 5 -12 2 6 2 18 0 25 -3 6 -5 1 -5 -13z"/>
<path d="M1371 1753 c-1 -6 -4 -20 -7 -30 -5 -17 -5 -17 6 0 6 10 9 23 6 30
-3 9 -5 9 -5 0z"/>
<path d="M855 1729 l16 -27 -66 -4 c-43 -3 -71 -10 -82 -21 -16 -16 -19 -15
-43 6 l-25 22 22 -25 c20 -23 21 -29 9 -63 -7 -20 -16 -35 -19 -32 -4 3 -3 -1
3 -7 5 -7 10 -29 10 -50 0 -31 -3 -36 -17 -32 -17 5 -17 5 -1 -5 25 -16 25
-148 0 -154 -16 -4 -16 -5 0 -6 14 -1 17 -11 17 -58 -1 -32 -6 -61 -13 -65 -8
-6 -8 -8 2 -8 20 0 15 -58 -5 -63 -17 -4 -17 -5 0 -6 20 -1 25 -56 5 -64 -10
-4 -10 -6 0 -6 6 -1 12 -14 12 -30 0 -16 -6 -32 -12 -34 -10 -4 -10 -6 0 -6
19 -1 15 -68 -5 -81 -17 -11 -17 -11 0 -6 14 5 17 -1 17 -39 l0 -44 -28 27
c-21 20 -25 30 -17 41 8 12 7 13 -9 4 -27 -15 -101 24 -84 44 8 10 7 12 -4 8
-20 -8 -32 23 -17 41 14 17 75 19 85 3 3 -6 0 -16 -7 -21 -10 -7 -8 -8 7 -3
15 4 24 -1 32 -17 10 -21 11 -20 9 11 -2 31 -7 36 -37 44 -43 11 -108 3 -127
-16 -8 -7 -15 -25 -17 -38 -1 -14 -6 -31 -11 -38 -5 -9 -4 -12 3 -7 6 3 14 0
19 -7 4 -8 20 -22 35 -32 15 -9 25 -21 22 -26 -3 -5 1 -7 8 -4 7 3 28 -4 46
-15 25 -15 32 -27 32 -50 0 -16 -4 -30 -8 -30 -5 0 -17 -7 -28 -15 -17 -13
-16 -14 16 -5 19 5 47 23 61 40 l27 31 5 -23 c4 -15 22 -32 47 -44 35 -18 38
-23 25 -34 -8 -7 -15 -17 -15 -23 0 -5 9 2 21 17 16 20 29 26 61 26 34 0 39
-3 34 -17 -6 -17 -5 -17 8 0 8 11 27 17 50 17 l37 0 -16 -30 c-9 -16 -13 -30
-11 -30 3 0 12 13 21 29 15 29 15 29 109 30 82 1 95 -1 99 -17 4 -16 5 -16 6
1 1 11 9 17 26 17 23 0 31 -13 26 -43 -1 -5 3 -6 8 -3 5 3 7 15 4 25 -4 18 3
19 135 20 130 1 141 -1 147 -18 3 -11 13 -25 22 -33 16 -12 15 -11 0 12 -9 13
-17 28 -17 32 0 15 74 8 94 -9 17 -15 18 -15 8 -2 -10 14 -10 18 4 23 30 11
77 6 98 -11 20 -17 20 -17 7 0 -14 17 -11 18 62 16 43 -1 80 0 83 4 9 8 12 57
4 62 -4 2 -12 -7 -19 -21 -7 -17 -17 -24 -27 -20 -8 3 -12 2 -9 -4 4 -6 -12
-10 -39 -10 -51 0 -59 13 -54 79 5 48 33 64 59 32 19 -23 19 -23 19 -2 0 15 4
20 13 15 10 -6 10 -4 0 7 -7 7 -13 22 -13 32 0 17 -2 17 -19 -4 -16 -19 -23
-22 -38 -13 -24 15 -30 88 -9 109 32 33 91 12 109 -37 12 -33 24 -19 18 20
l-6 37 -78 3 c-74 3 -77 4 -77 27 0 14 7 25 18 28 16 4 16 5 0 6 -21 1 -26 56
-5 64 10 4 10 6 0 6 -20 1 -18 121 1 121 8 0 17 4 20 9 4 5 -3 7 -14 4 -17 -4
-20 0 -20 24 0 25 6 32 33 41 l32 11 -32 -5 c-31 -5 -33 -4 -33 25 0 18 5 31
13 31 9 0 9 2 0 8 -16 10 -16 151 0 171 7 8 7 12 1 9 -6 -4 -15 11 -23 36 -10
34 -20 47 -48 60 -31 15 -33 19 -22 34 13 16 12 16 -7 0 -25 -21 -110 -26 -98
-5 6 9 5 9 -7 0 -8 -7 -54 -12 -116 -12 -89 -1 -102 1 -106 17 -4 16 -5 16 -6
0 -1 -14 -11 -17 -58 -17 -32 1 -61 6 -65 13 -6 8 -8 8 -8 -1 0 -21 -58 -16
-63 5 -4 16 -5 16 -6 0 -1 -12 -9 -18 -26 -18 -13 0 -29 8 -35 18 -10 15 -11
15 -6 0 4 -15 -4 -17 -67 -17 -66 0 -74 3 -95 27 l-23 27 16 -26z"/>
<path d="M590 1636 c0 -2 8 -10 18 -17 15 -13 16 -12 3 4 -13 16 -21 21 -21
13z"/>
<path d="M1749 1603 c-13 -16 -12 -17 4 -4 9 7 17 15 17 17 0 8 -8 3 -21 -13z"/>
<path d="M590 1526 c0 -2 7 -7 16 -10 8 -3 12 -2 9 4 -6 10 -25 14 -25 6z"/>
<path d="M1735 1500 c-3 -6 1 -7 9 -4 18 7 21 14 7 14 -6 0 -13 -4 -16 -10z"/>
<path d="M1820 1450 c-8 -5 -10 -10 -5 -10 6 0 17 5 25 10 8 5 11 10 5 10 -5
0 -17 -5 -25 -10z"/>
<path d="M600 1430 c8 -5 20 -10 25 -10 6 0 3 5 -5 10 -8 5 -19 10 -25 10 -5
0 -3 -5 5 -10z"/>
<path d="M1745 1420 c-3 -6 1 -7 9 -4 18 7 21 14 7 14 -6 0 -13 -4 -16 -10z"/>
<path d="M548 1363 c7 -3 16 -2 19 1 4 3 -2 6 -13 5 -11 0 -14 -3 -6 -6z"/>
<path d="M1798 1353 c7 -3 16 -2 19 1 4 3 -2 6 -13 5 -11 0 -14 -3 -6 -6z"/>
<path d="M618 1343 c7 -3 16 -2 19 1 4 3 -2 6 -13 5 -11 0 -14 -3 -6 -6z"/>
<path d="M508 1283 c6 -2 18 -2 25 0 6 3 1 5 -13 5 -14 0 -19 -2 -12 -5z"/>
<path d="M1835 1280 c-3 -6 1 -7 9 -4 18 7 21 14 7 14 -6 0 -13 -4 -16 -10z"/>
<path d="M578 1273 c6 -2 18 -2 25 0 6 3 1 5 -13 5 -14 0 -19 -2 -12 -5z"/>
<path d="M537 1199 c7 -7 15 -10 18 -7 3 3 -2 9 -12 12 -14 6 -15 5 -6 -5z"/>
<path d="M1756 1202 c-3 -5 1 -9 9 -9 8 0 12 4 9 9 -3 4 -7 8 -9 8 -2 0 -6 -4
-9 -8z"/>
<path d="M555 1120 c-3 -6 1 -7 9 -4 18 7 21 14 7 14 -6 0 -13 -4 -16 -10z"/>
<path d="M598 1123 c6 -2 18 -2 25 0 6 3 1 5 -13 5 -14 0 -19 -2 -12 -5z"/>
<path d="M1798 1123 c7 -3 16 -2 19 1 4 3 -2 6 -13 5 -11 0 -14 -3 -6 -6z"/>
<path d="M1878 1113 c7 -3 16 -2 19 1 4 3 -2 6 -13 5 -11 0 -14 -3 -6 -6z"/>
<path d="M2008 1093 c7 -3 16 -2 19 1 4 3 -2 6 -13 5 -11 0 -14 -3 -6 -6z"/>
<path d="M618 1053 c6 -2 18 -2 25 0 6 3 1 5 -13 5 -14 0 -19 -2 -12 -5z"/>
<path d="M578 1043 c7 -3 16 -2 19 1 4 3 -2 6 -13 5 -11 0 -14 -3 -6 -6z"/>
<path d="M1788 1043 c7 -3 16 -2 19 1 4 3 -2 6 -13 5 -11 0 -14 -3 -6 -6z"/>
<path d="M1828 1033 c7 -3 16 -2 19 1 4 3 -2 6 -13 5 -11 0 -14 -3 -6 -6z"/>
<path d="M1757 889 c7 -7 15 -10 18 -7 3 3 -2 9 -12 12 -14 6 -15 5 -6 -5z"/>
<path d="M446 809 c-13 -19 -13 -24 0 -44 16 -25 31 -33 81 -45 19 -5 31 -4
27 1 -3 5 -14 9 -24 9 -29 0 -42 32 -24 58 8 12 12 27 9 32 -11 18 -53 11 -69
-11z"/>
<path d="M589 763 c-13 -16 -12 -17 4 -4 9 7 17 15 17 17 0 8 -8 3 -21 -13z"/>
<path d="M1780 776 c0 -2 8 -10 18 -17 15 -13 16 -12 3 4 -13 16 -21 21 -21
13z"/>
<path d="M669 713 c-13 -16 -12 -17 4 -4 9 7 17 15 17 17 0 8 -8 3 -21 -13z"/>
<path d="M479 683 c-13 -16 -12 -17 4 -4 9 7 17 15 17 17 0 8 -8 3 -21 -13z"/>
<path d="M1092 680 c0 -14 2 -19 5 -12 2 6 2 18 0 25 -3 6 -5 1 -5 -13z"/>
<path d="M1430 691 c0 -6 4 -13 10 -16 6 -3 7 1 4 9 -7 18 -14 21 -14 7z"/>
<path d="M1292 670 c0 -14 2 -19 5 -12 2 6 2 18 0 25 -3 6 -5 1 -5 -13z"/>
<path d="M1361 674 c0 -11 3 -14 6 -6 3 7 2 16 -1 19 -3 4 -6 -2 -5 -13z"/>
<path d="M1910 676 c0 -2 7 -7 16 -10 8 -3 12 -2 9 4 -6 10 -25 14 -25 6z"/>
<path d="M1630 666 c0 -2 8 -10 18 -17 15 -13 16 -12 3 4 -13 16 -21 21 -21
13z"/>
<path d="M1011 653 c-1 -6 -4 -20 -7 -30 -5 -17 -5 -17 6 0 6 10 9 23 6 30 -3
9 -5 9 -5 0z"/>
<path d="M1450 655 c0 -5 5 -17 10 -25 5 -8 10 -10 10 -5 0 6 -5 17 -10 25 -5
8 -10 11 -10 5z"/>
<path d="M829 633 c-13 -16 -12 -17 4 -4 9 7 17 15 17 17 0 8 -8 3 -21 -13z"/>
<path d="M1082 630 c0 -14 2 -19 5 -12 2 6 2 18 0 25 -3 6 -5 1 -5 -13z"/>
<path d="M1370 645 c0 -5 5 -17 10 -25 5 -8 10 -10 10 -5 0 6 -5 17 -10 25 -5
8 -10 11 -10 5z"/>
<path d="M1301 624 c0 -11 3 -14 6 -6 3 7 2 16 -1 19 -3 4 -6 -2 -5 -13z"/>
<path d="M1151 604 c0 -11 3 -14 6 -6 3 7 2 16 -1 19 -3 4 -6 -2 -5 -13z"/>
<path d="M905 599 c-4 -6 -5 -12 -2 -15 2 -3 7 2 10 11 7 17 1 20 -8 4z"/>
<path d="M1232 590 c0 -14 2 -19 5 -12 2 6 2 18 0 25 -3 6 -5 1 -5 -13z"/>
<path d="M1476 597 c3 -10 9 -15 12 -12 3 3 0 11 -7 18 -10 9 -11 8 -5 -6z"/>
<path d="M987 581 c-4 -17 -3 -21 5 -13 5 5 8 16 6 23 -3 8 -7 3 -11 -10z"/>
<path d="M1312 580 c0 -14 2 -19 5 -12 2 6 2 18 0 25 -3 6 -5 1 -5 -13z"/>
<path d="M1321 524 c0 -11 3 -14 6 -6 3 7 2 16 -1 19 -3 4 -6 -2 -5 -13z"/>
</g>
</svg>
